<?xml version="1.0" encoding="us-ascii" standalone="no"?><svg xmlns="http://www.w3.org/2000/svg" xmlns:xlink="http://www.w3.org/1999/xlink" contentStyleType="text/css" height="650px" preserveAspectRatio="none" style="width:980px;height:650px;background:#FFFFFF;" version="1.1" viewBox="0 0 980 650" width="980px" zoomAndPan="magnify"><defs/><g><!--class Produit--><g id="elem_Produit"><rect codeLine="4" fill="#F1F1F1" height="357.6406" id="Produit" rx="2.5" ry="2.5" style="stroke:#181818;stroke-width:0.5;" width="307" x="666" y="7"/><ellipse cx="789.25" cy="23" fill="#ADD1B2" rx="11" ry="11" style="stroke:#181818;stroke-width:1.0;"/><path d="M791.5938,18.6719 C790.6563,18.2344 790.0625,18.0938 789.1875,18.0938 C786.5625,18.0938 784.5625,20.1719 784.5625,22.8906 L784.5625,24.0156 C784.5625,26.5938 786.6719,28.4844 789.5625,28.4844 C790.7813,28.4844 791.9375,28.1875 792.6875,27.6406 C793.2656,27.2344 793.5938,26.7813 793.5938,26.3906 C793.5938,25.9375 793.2031,25.5469 792.7344,25.5469 C792.5156,25.5469 792.3125,25.625 792.125,25.8125 C791.6719,26.2969 791.6719,26.2969 791.4844,26.3906 C791.0625,26.6563 790.375,26.7813 789.6094,26.7813 C787.5625,26.7813 786.2656,25.6875 786.2656,23.9844 L786.2656,22.8906 C786.2656,21.1094 787.5156,19.7969 789.25,19.7969 C789.8281,19.7969 790.4375,19.9531 790.9063,20.2031 C791.3906,20.4844 791.5625,20.7031 791.6563,21.1094 C791.7188,21.5156 791.75,21.6406 791.8906,21.7656 C792.0313,21.9063 792.2656,22.0156 792.4844,22.0156 C792.75,22.0156 793.0156,21.875 793.1875,21.6563 C793.2969,21.5 793.3281,21.3125 793.3281,20.8906 L793.3281,19.4688 C793.3281,19.0313 793.3125,18.9063 793.2188,18.75 C793.0625,18.4844 792.7813,18.3438 792.4844,18.3438 C792.1875,18.3438 791.9844,18.4375 791.7656,18.75 L791.5938,18.6719 Z " fill="#000000"/><text fill="#000000" font-family="sans-serif" font-size="14" lengthAdjust="spacing" textLength="52" x="809.75" y="27.8467">Produit</text><line style="stroke:#181818;stroke-width:0.5;" x1="667" x2="972" y1="39" y2="39"/><rect fill="none" height="6" style="stroke:#C82930;stroke-width:1.0;" width="6" x="674" y="49.6484"/><text fill="#000000" font-family="sans-serif" font-size="14" lengthAdjust="spacing" textLength="88" x="686" y="55.9951">numero : int</text><rect fill="none" height="6" style="stroke:#C82930;stroke-width:1.0;" width="6" x="674" y="65.9453"/><text fill="#000000" font-family="sans-serif" font-size="14" lengthAdjust="spacing" textLength="139" x="686" y="72.292">description : String</text><rect fill="none" height="6" style="stroke:#C82930;stroke-width:1.0;" width="6" x="674" y="82.2422"/><text fill="#000000" font-family="sans-serif" font-size="14" lengthAdjust="spacing" textLength="101" x="686" y="88.5889">prixInitial : int</text><rect fill="none" height="6" style="stroke:#C82930;stroke-width:1.0;" width="6" x="674" y="98.5391"/><text fill="#000000" font-family="sans-serif" font-size="14" lengthAdjust="spacing" text-decoration="underline" textLength="117" x="686" y="104.8857">pasEnchere : int</text><rect fill="none" height="6" style="stroke:#C82930;stroke-width:1.0;" width="6" x="674" y="114.8359"/><text fill="#000000" font-family="sans-serif" font-size="14" lengthAdjust="spacing" textLength="158" x="686" y="121.1826">coutParticipation : int</text><rect fill="none" height="6" style="stroke:#C82930;stroke-width:1.0;" width="6" x="674" y="131.1328"/><text fill="#000000" font-family="sans-serif" font-size="14" lengthAdjust="spacing" textLength="146" x="686" y="137.4795">disponible : boolean</text><line style="stroke:#181818;stroke-width:0.5;" x1="667" x2="972" y1="144.7813" y2="144.7813"/><ellipse cx="677" cy="158.4297" fill="#84BE84" rx="3" ry="3" style="stroke:#038048;stroke-width:1.0;"/><text fill="#000000" font-family="sans-serif" font-size="14" lengthAdjust="spacing" textLength="179" x="686" y="161.7764">demarrerEnchere() : void</text><ellipse cx="677" cy="174.7266" fill="#84BE84" rx="3" ry="3" style="stroke:#038048;stroke-width:1.0;"/><text fill="#000000" font-family="sans-serif" font-size="14" lengthAdjust="spacing" textLength="163" x="686" y="178.0732">arreterEnchere() : void</text><ellipse cx="677" cy="191.0234" fill="#84BE84" rx="3" ry="3" style="stroke:#038048;stroke-width:1.0;"/><text fill="#000000" font-family="sans-serif" font-size="14" lengthAdjust="spacing" textLength="141" x="686" y="194.3701">getPrixActuel() : int</text><ellipse cx="677" cy="207.3203" fill="#84BE84" rx="3" ry="3" style="stroke:#038048;stroke-width:1.0;"/><text fill="#000000" font-family="sans-serif" font-size="14" lengthAdjust="spacing" textLength="195" x="686" y="210.667">getCoutParticipation() : int</text><ellipse cx="677" cy="223.6172" fill="#84BE84" rx="3" ry="3" style="stroke:#038048;stroke-width:1.0;"/><text fill="#000000" font-family="sans-serif" font-size="14" lengthAdjust="spacing" textLength="124" x="686" y="226.9639">getNumero() : int</text><ellipse cx="677" cy="239.9141" fill="#84BE84" rx="3" ry="3" style="stroke:#038048;stroke-width:1.0;"/><text fill="#000000" font-family="sans-serif" font-size="14" lengthAdjust="spacing" text-decoration="underline" textLength="159" x="686" y="243.2607">setPasEnchere() : void</text><ellipse cx="677" cy="256.2109" fill="#84BE84" rx="3" ry="3" style="stroke:#038048;stroke-width:1.0;"/><text fill="#000000" font-family="sans-serif" font-size="14" lengthAdjust="spacing" text-decoration="underline" textLength="151" x="686" y="259.5576">getPasEnchere() : int</text><ellipse cx="677" cy="272.5078" fill="#84BE84" rx="3" ry="3" style="stroke:#038048;stroke-width:1.0;"/><text fill="#000000" font-family="sans-serif" font-size="14" lengthAdjust="spacing" textLength="179" x="686" y="275.8545">demarrerEnchere() : void</text><ellipse cx="677" cy="288.8047" fill="#84BE84" rx="3" ry="3" style="stroke:#038048;stroke-width:1.0;"/><text fill="#000000" font-family="sans-serif" font-size="14" lengthAdjust="spacing" textLength="163" x="686" y="292.1514">arreterEnchere() : void</text><ellipse cx="677" cy="305.1016" fill="#84BE84" rx="3" ry="3" style="stroke:#038048;stroke-width:1.0;"/><text fill="#000000" font-family="sans-serif" font-size="14" lengthAdjust="spacing" textLength="252" x="686" y="308.4482">ajouterOffre(OffreEnchere o) : void</text><ellipse cx="677" cy="321.3984" fill="#84BE84" rx="3" ry="3" style="stroke:#038048;stroke-width:1.0;"/><text fill="#000000" font-family="sans-serif" font-size="14" lengthAdjust="spacing" textLength="281" x="686" y="324.7451">verifierOffre(OffreEnchere o) : boolean</text><ellipse cx="677" cy="337.6953" fill="#84BE84" rx="3" ry="3" style="stroke:#038048;stroke-width:1.0;"/><text fill="#000000" font-family="sans-serif" font-size="14" lengthAdjust="spacing" textLength="253" x="686" y="341.042">getOffreGagnante() : OffreEnchere</text><ellipse cx="677" cy="353.9922" fill="#84BE84" rx="3" ry="3" style="stroke:#038048;stroke-width:1.0;"/><text fill="#000000" font-family="sans-serif" font-size="14" lengthAdjust="spacing" textLength="181" x="686" y="357.3389">estDisponible() : boolean</text></g><!--class OffreEnchere--><g id="elem_OffreEnchere"><rect codeLine="29" fill="#F1F1F1" height="243.5625" id="OffreEnchere" rx="2.5" ry="2.5" style="stroke:#181818;stroke-width:0.5;" width="359" x="7" y="64"/><ellipse cx="133.75" cy="80" fill="#ADD1B2" rx="11" ry="11" style="stroke:#181818;stroke-width:1.0;"/><path d="M136.0938,75.6719 C135.1563,75.2344 134.5625,75.0938 133.6875,75.0938 C131.0625,75.0938 129.0625,77.1719 129.0625,79.8906 L129.0625,81.0156 C129.0625,83.5938 131.1719,85.4844 134.0625,85.4844 C135.2813,85.4844 136.4375,85.1875 137.1875,84.6406 C137.7656,84.2344 138.0938,83.7813 138.0938,83.3906 C138.0938,82.9375 137.7031,82.5469 137.2344,82.5469 C137.0156,82.5469 136.8125,82.625 136.625,82.8125 C136.1719,83.2969 136.1719,83.2969 135.9844,83.3906 C135.5625,83.6563 134.875,83.7813 134.1094,83.7813 C132.0625,83.7813 130.7656,82.6875 130.7656,80.9844 L130.7656,79.8906 C130.7656,78.1094 132.0156,76.7969 133.75,76.7969 C134.3281,76.7969 134.9375,76.9531 135.4063,77.2031 C135.8906,77.4844 136.0625,77.7031 136.1563,78.1094 C136.2188,78.5156 136.25,78.6406 136.3906,78.7656 C136.5313,78.9063 136.7656,79.0156 136.9844,79.0156 C137.25,79.0156 137.5156,78.875 137.6875,78.6563 C137.7969,78.5 137.8281,78.3125 137.8281,77.8906 L137.8281,76.4688 C137.8281,76.0313 137.8125,75.9063 137.7188,75.75 C137.5625,75.4844 137.2813,75.3438 136.9844,75.3438 C136.6875,75.3438 136.4844,75.4375 136.2656,75.75 L136.0938,75.6719 Z " fill="#000000"/><text fill="#000000" font-family="sans-serif" font-size="14" lengthAdjust="spacing" textLength="97" x="154.25" y="84.8467">OffreEnchere</text><line style="stroke:#181818;stroke-width:0.5;" x1="8" x2="365" y1="96" y2="96"/><rect fill="none" height="6" style="stroke:#C82930;stroke-width:1.0;" width="6" x="15" y="106.6484"/><text fill="#000000" font-family="sans-serif" font-size="14" lengthAdjust="spacing" textLength="119" x="27" y="112.9951">prixEnCours : int</text><rect fill="none" height="6" style="stroke:#C82930;stroke-width:1.0;" width="6" x="15" y="122.9453"/><text fill="#000000" font-family="sans-serif" font-size="14" lengthAdjust="spacing" textLength="89" x="27" y="129.292">prixMax : int</text><rect fill="none" height="6" style="stroke:#C82930;stroke-width:1.0;" width="6" x="15" y="139.2422"/><text fill="#000000" font-family="sans-serif" font-size="14" lengthAdjust="spacing" textLength="163" x="27" y="145.5889">etatGagnant : boolean</text><line style="stroke:#181818;stroke-width:0.5;" x1="8" x2="365" y1="152.8906" y2="152.8906"/><ellipse cx="18" cy="166.5391" fill="#84BE84" rx="3" ry="3" style="stroke:#038048;stroke-width:1.0;"/><text fill="#000000" font-family="sans-serif" font-size="14" lengthAdjust="spacing" textLength="153" x="27" y="169.8857">getPrixEnCours() : int</text><ellipse cx="18" cy="182.8359" fill="#84BE84" rx="3" ry="3" style="stroke:#038048;stroke-width:1.0;"/><text fill="#000000" font-family="sans-serif" font-size="14" lengthAdjust="spacing" textLength="181" x="27" y="186.1826">setPrixEnCours(int) : void</text><ellipse cx="18" cy="199.1328" fill="#84BE84" rx="3" ry="3" style="stroke:#038048;stroke-width:1.0;"/><text fill="#000000" font-family="sans-serif" font-size="14" lengthAdjust="spacing" textLength="123" x="27" y="202.4795">getPrixMax() : int</text><ellipse cx="18" cy="215.4297" fill="#84BE84" rx="3" ry="3" style="stroke:#038048;stroke-width:1.0;"/><text fill="#000000" font-family="sans-serif" font-size="14" lengthAdjust="spacing" textLength="151" x="27" y="218.7764">setPrixMax(int) : void</text><ellipse cx="18" cy="231.7266" fill="#84BE84" rx="3" ry="3" style="stroke:#038048;stroke-width:1.0;"/><text fill="#000000" font-family="sans-serif" font-size="14" lengthAdjust="spacing" textLength="152" x="27" y="235.0732">getProduit() : Produit</text><ellipse cx="18" cy="248.0234" fill="#84BE84" rx="3" ry="3" style="stroke:#038048;stroke-width:1.0;"/><text fill="#000000" font-family="sans-serif" font-size="14" lengthAdjust="spacing" textLength="333" x="27" y="251.3701">hasMemeProprietaire(OffreEnchere) : boolean</text><ellipse cx="18" cy="264.3203" fill="#84BE84" rx="3" ry="3" style="stroke:#038048;stroke-width:1.0;"/><text fill="#000000" font-family="sans-serif" font-size="14" lengthAdjust="spacing" textLength="198" x="27" y="267.667">getEtatGagnant() : boolean</text><ellipse cx="18" cy="280.6172" fill="#84BE84" rx="3" ry="3" style="stroke:#038048;stroke-width:1.0;"/><text fill="#000000" font-family="sans-serif" font-size="14" lengthAdjust="spacing" textLength="261" x="27" y="283.9639">setEtatGagnant(boolean etat) : void</text><ellipse cx="18" cy="296.9141" fill="#84BE84" rx="3" ry="3" style="stroke:#038048;stroke-width:1.0;"/><text fill="#000000" font-family="sans-serif" font-size="14" lengthAdjust="spacing" textLength="110" x="27" y="300.2607">finaliser() : void</text></g><!--class Compte--><g id="elem_Compte"><rect codeLine="46" fill="#F1F1F1" height="178.375" id="Compte" rx="2.5" ry="2.5" style="stroke:#181818;stroke-width:0.5;" width="330" x="337.5" y="465"/><ellipse cx="468.75" cy="481" fill="#ADD1B2" rx="11" ry="11" style="stroke:#181818;stroke-width:1.0;"/><path d="M471.0938,476.6719 C470.1563,476.2344 469.5625,476.0938 468.6875,476.0938 C466.0625,476.0938 464.0625,478.1719 464.0625,480.8906 L464.0625,482.0156 C464.0625,484.5938 466.1719,486.4844 469.0625,486.4844 C470.2813,486.4844 471.4375,486.1875 472.1875,485.6406 C472.7656,485.2344 473.0938,484.7813 473.0938,484.3906 C473.0938,483.9375 472.7031,483.5469 472.2344,483.5469 C472.0156,483.5469 471.8125,483.625 471.625,483.8125 C471.1719,484.2969 471.1719,484.2969 470.9844,484.3906 C470.5625,484.6563 469.875,484.7813 469.1094,484.7813 C467.0625,484.7813 465.7656,483.6875 465.7656,481.9844 L465.7656,480.8906 C465.7656,479.1094 467.0156,477.7969 468.75,477.7969 C469.3281,477.7969 469.9375,477.9531 470.4063,478.2031 C470.8906,478.4844 471.0625,478.7031 471.1563,479.1094 C471.2188,479.5156 471.25,479.6406 471.3906,479.7656 C471.5313,479.9063 471.7656,480.0156 471.9844,480.0156 C472.25,480.0156 472.5156,479.875 472.6875,479.6563 C472.7969,479.5 472.8281,479.3125 472.8281,478.8906 L472.8281,477.4688 C472.8281,477.0313 472.8125,476.9063 472.7188,476.75 C472.5625,476.4844 472.2813,476.3438 471.9844,476.3438 C471.6875,476.3438 471.4844,476.4375 471.2656,476.75 L471.0938,476.6719 Z " fill="#000000"/><text fill="#000000" font-family="sans-serif" font-size="14" lengthAdjust="spacing" textLength="59" x="489.25" y="485.8467">Compte</text><line style="stroke:#181818;stroke-width:0.5;" x1="338.5" x2="666.5" y1="497" y2="497"/><rect fill="none" height="6" style="stroke:#C82930;stroke-width:1.0;" width="6" x="345.5" y="507.6484"/><text fill="#000000" font-family="sans-serif" font-size="14" lengthAdjust="spacing" textLength="109" x="357.5" y="513.9951">pseudo : String</text><rect fill="none" height="6" style="stroke:#C82930;stroke-width:1.0;" width="6" x="345.5" y="523.9453"/><text fill="#000000" font-family="sans-serif" font-size="14" lengthAdjust="spacing" textLength="71" x="357.5" y="530.292">solde : int</text><line style="stroke:#181818;stroke-width:0.5;" x1="338.5" x2="666.5" y1="537.5938" y2="537.5938"/><ellipse cx="348.5" cy="551.2422" fill="#84BE84" rx="3" ry="3" style="stroke:#038048;stroke-width:1.0;"/><text fill="#000000" font-family="sans-serif" font-size="14" lengthAdjust="spacing" textLength="143" x="357.5" y="554.5889">getPseudo() : String</text><ellipse cx="348.5" cy="567.5391" fill="#84BE84" rx="3" ry="3" style="stroke:#038048;stroke-width:1.0;"/><text fill="#000000" font-family="sans-serif" font-size="14" lengthAdjust="spacing" textLength="108" x="357.5" y="570.8857">getSolde() : int</text><ellipse cx="348.5" cy="583.8359" fill="#84BE84" rx="3" ry="3" style="stroke:#038048;stroke-width:1.0;"/><text fill="#000000" font-family="sans-serif" font-size="14" lengthAdjust="spacing" textLength="304" x="357.5" y="587.1826">creerOffre(Produit, int, int) : OffreEnchere</text><ellipse cx="348.5" cy="600.1328" fill="#84BE84" rx="3" ry="3" style="stroke:#038048;stroke-width:1.0;"/><text fill="#000000" font-family="sans-serif" font-size="14" lengthAdjust="spacing" textLength="262" x="357.5" y="603.4795">supprimerOffre(OffreEnchere) : void</text><ellipse cx="348.5" cy="616.4297" fill="#84BE84" rx="3" ry="3" style="stroke:#038048;stroke-width:1.0;"/><text fill="#000000" font-family="sans-serif" font-size="14" lengthAdjust="spacing" textLength="131" x="357.5" y="619.7764">crediter(int) : void</text><ellipse cx="348.5" cy="632.7266" fill="#84BE84" rx="3" ry="3" style="stroke:#038048;stroke-width:1.0;"/><text fill="#000000" font-family="sans-serif" font-size="14" lengthAdjust="spacing" textLength="208" x="357.5" y="636.0732">ajouterProduit(Produit) : void</text></g><!--link OffreEnchere to Produit--><g id="link_OffreEnchere_Produit"><path codeLine="58" d="M366.077,260.375 C466.001,285.37 565.925,283.004 665.85,253.276 " fill="none" id="OffreEnchere-Produit" style="stroke:#181818;stroke-width:1.0;"/><text fill="#000000" font-family="sans-serif" font-size="13" lengthAdjust="spacing" textLength="108" x="373.7412" y="259.6456">offresEncheres *</text><text fill="#000000" font-family="sans-serif" font-size="13" lengthAdjust="spacing" textLength="57" x="601.1655" y="252.8751">produit 1</text></g><!--reverse link OffreEnchere to Produit--><g id="link_OffreEnchere_Produit"><path codeLine="59" d="M371.8977,110.169 C471.8217,85.174 565.925,88.996 665.85,118.724 " fill="none" id="OffreEnchere-backto-Produit" style="stroke:#181818;stroke-width:1.0;"/><polygon fill="#181818" points="366.077,111.625,375.7786,113.3215,370.9276,110.4117,373.8373,105.5606,366.077,111.625" style="stroke:#181818;stroke-width:1.0;"/><text fill="#000000" font-family="sans-serif" font-size="13" lengthAdjust="spacing" textLength="106" x="373.7084" y="106.0147">offreGagnante 1</text></g><!--link OffreEnchere to Compte--><g id="link_OffreEnchere_Compte"><path codeLine="61" d="M291.065,308.11 C335.275,359.316 385.812,417.849 426.39,464.847 " fill="none" id="OffreEnchere-Compte" style="stroke:#181818;stroke-width:1.0;"/><text fill="#000000" font-family="sans-serif" font-size="13" lengthAdjust="spacing" textLength="98" x="196.2774" y="327.6865">mesEncheres *</text><text fill="#000000" font-family="sans-serif" font-size="13" lengthAdjust="spacing" textLength="92" x="324.2778" y="453.8998">monCompte 1</text></g><!--reverse link Produit to Compte--><g id="link_Produit_Compte"><path codeLine="63" d="M661.9469,368.9064 C631.7889,403.7264 605.324,434.282 579.068,464.596 " fill="none" id="Produit-backto-Compte" style="stroke:#181818;stroke-width:1.0;"/><polygon fill="#181818" points="665.875,364.371,656.9592,368.5553,662.6015,368.1505,663.0064,373.7928,665.875,364.371" style="stroke:#181818;stroke-width:1.0;"/><text fill="#000000" font-family="sans-serif" font-size="13" lengthAdjust="spacing" textLength="115" x="543.2877" y="367.5874">produitsAchet&#233;s *</text></g><!--SRC=[fLHBRjim4Dth58HNJbi12RehkWbIe-WYZO6SW95eUHg996Qe882H0-KSkLY7D2cBjBoA5xOyxytlpOpe6RILA0UXJQj8MV7z-hgYoOfIFtlh3LkhffT4Oekc7S69GoNuKmiz3WgD-250ksZYI0s2TM0qsnyTWkuYP15U_sXm8FlCvK1EEcZUX9MqqSrUeShmnenkAv4fO6KCF4i8P8s6fzuxFHdJAwchAe1VkPf18YgCOTTNp7anq4ROO-uYsYctvP9l6pUgFe0fQy3kohBEAN-3FeLzQfSu_jHncNnYTMUiKwXFjIV_SGCA7tOxni9t4jyKp1U5i8FBrAJwr7UW_9QTbjeTyywT8a-H-pNDRZsFKxsbXSjo7MPxjD4iFrAs2Tv-Brypcs8LOo7p1Dc0Own2Myf11fRNWpCkUthWWbUuek0LdoEubtIl1iL6xeLBXqBkHR4tfnRNvmJA2H4CkXILxK3B7aZXQL5EWxWpWtMp4P0QMrCUE9c-JQSxQpTmGz0PEq2Ftg5Ghq6LDYsAyysZuUl29j5eMQzXQK6B7Zbu2xpq2uE9vv264tyd4YkHBUFA-7_fBabyMTK8tTxLAnjVaZUhQReBdkawFErdNK_KWZiifXYCZWDXx-DJLQMNSog0RjdFVRnxnv3YIFmF]--></g></svg>